<svg width="76" height="60" viewBox="0 0 76 60" fill="none" xmlns="http://www.w3.org/2000/svg">
<rect x="0.154297" y="0.393036" width="75" height="59" fill="white"/>
<path d="M35.3418 37.393C35.6525 37.393 35.9043 37.1412 35.9043 36.8305C35.9043 36.5199 35.6525 36.268 35.3418 36.268C35.0311 36.268 34.7793 36.5199 34.7793 36.8305C34.7793 37.1412 35.0311 37.393 35.3418 37.393Z" fill="#22262A" stroke="#22262A" stroke-width="2" stroke-miterlimit="10" stroke-linecap="round" stroke-linejoin="round"/>
<path d="M43.2168 37.393C43.5275 37.393 43.7793 37.1412 43.7793 36.8305C43.7793 36.5199 43.5275 36.268 43.2168 36.268C42.9061 36.268 42.6543 36.5199 42.6543 36.8305C42.6543 37.1412 42.9061 37.393 43.2168 37.393Z" fill="#22262A" stroke="#22262A" stroke-width="2" stroke-miterlimit="10" stroke-linecap="round" stroke-linejoin="round"/>
<path d="M29.1543 19.393H31.4043L33.6543 32.893H44.9043L47.1543 22.768H32.5293" stroke="#22262A" stroke-width="2" stroke-linecap="round" stroke-linejoin="round"/>
</svg>
