<svg width="9" height="16" viewBox="0 0 9 16" fill="none" xmlns="http://www.w3.org/2000/svg">
<path d="M0.808037 8.81142H2.46603V15.6394C2.46603 15.7041 2.49175 15.7662 2.53751 15.812C2.58327 15.8577 2.64532 15.8834 2.71004 15.8834H5.52203C5.58675 15.8834 5.64881 15.8577 5.69456 15.812C5.74032 15.7662 5.76604 15.7041 5.76604 15.6394V8.84342H7.67303C7.73283 8.84332 7.79052 8.82127 7.83513 8.78145C7.87974 8.74164 7.90818 8.68682 7.91504 8.62742L8.20503 6.11342C8.20898 6.07927 8.20567 6.04468 8.19531 6.0119C8.18496 5.97913 8.16779 5.94891 8.14494 5.92323C8.1221 5.89755 8.09408 5.87699 8.06273 5.86289C8.03138 5.84879 7.9974 5.84147 7.96303 5.84142H5.76303V4.26642C5.76303 3.79142 6.01904 3.55042 6.52304 3.55042H7.95903C8.02374 3.55042 8.0858 3.52471 8.13156 3.47895C8.17732 3.43319 8.20303 3.37113 8.20303 3.30642V0.999418C8.20357 0.935047 8.17865 0.873072 8.1337 0.826994C8.08874 0.780917 8.02739 0.754471 7.96303 0.753418H5.98204H5.89104C4.97882 0.756637 4.09833 1.0886 3.41104 1.68842C3.08673 1.97184 2.83789 2.33139 2.6869 2.73476C2.53592 3.13814 2.48752 3.57271 2.54604 3.99942V5.84242H0.805031C0.740318 5.84242 0.678259 5.86812 0.6325 5.91388C0.586741 5.95964 0.561035 6.02171 0.561035 6.08642V8.56742C0.561033 8.59971 0.567438 8.63169 0.579887 8.66149C0.592337 8.69129 0.610584 8.71832 0.63356 8.74102C0.656536 8.76372 0.683787 8.78163 0.713737 8.79371C0.743688 8.8058 0.775743 8.81181 0.808037 8.81142Z" fill="#385C8E"/>
</svg>
