<svg width="51" height="47" viewBox="0 0 51 47" fill="none" xmlns="http://www.w3.org/2000/svg">
<g opacity="0.25">
<path opacity="0.25" d="M25.5 45.4226C39.031 45.4226 50 35.4987 50 23.2569C50 11.0151 39.031 1.09119 25.5 1.09119C11.969 1.09119 1 11.0151 1 23.2569C1 35.4987 11.969 45.4226 25.5 45.4226Z" stroke="#33A0FF" stroke-width="2"/>
</g>
<path fill-rule="evenodd" clip-rule="evenodd" d="M31.554 25.9315C32.0681 25.9309 32.5659 25.7689 32.9628 25.4732C33.3596 25.1776 33.6307 24.7666 33.73 24.3103L34.845 19.2682C34.9096 18.976 34.9018 18.6745 34.8222 18.3853C34.7425 18.0962 34.5931 17.8266 34.3845 17.596C34.176 17.3653 33.9135 17.1793 33.616 17.0514C33.3185 16.9235 32.9934 16.8569 32.664 16.8562H21.564V15.8475C21.5638 15.5807 21.4467 15.3249 21.2385 15.136C21.0303 14.9471 20.7479 14.8406 20.453 14.8396H18.238C17.9482 14.8475 17.6732 14.9571 17.4713 15.1454C17.2694 15.3336 17.1564 15.5856 17.1564 15.8479C17.1564 16.1102 17.2694 16.3622 17.4713 16.5505C17.6732 16.7387 17.9482 16.8484 18.238 16.8562H19.353V26.9394C18.9117 26.9376 18.4798 27.0544 18.1119 27.2749C17.7441 27.4954 17.4568 27.8096 17.2866 28.178C17.1163 28.5463 17.0708 28.9521 17.1556 29.3438C17.2405 29.7356 17.452 30.0958 17.7633 30.3788C18.0747 30.6617 18.4718 30.8546 18.9045 30.9332C19.3371 31.0117 19.7858 30.9723 20.1937 30.82C20.6016 30.6676 20.9503 30.4091 21.1957 30.0773C21.441 29.7455 21.572 29.3553 21.572 28.956H29.338C29.3398 29.3529 29.4715 29.7404 29.7165 30.0696C29.9615 30.3989 30.3089 30.655 30.7147 30.8058C31.1205 30.9566 31.5666 30.9952 31.9966 30.9168C32.4266 30.8384 32.8214 30.6464 33.1309 30.3652C33.4405 30.084 33.6511 29.7261 33.736 29.3367C33.8209 28.9473 33.7764 28.5439 33.6081 28.1774C33.4399 27.8108 33.1553 27.4976 32.7905 27.2773C32.4256 27.0569 31.9967 26.9394 31.558 26.9394H21.571V25.9315H31.554ZM32.669 18.8747L31.554 23.9167H21.567V18.8747H32.667H32.669Z" fill="#33A0FF"/>
</svg>
