<svg width="52" height="47" viewBox="0 0 52 47" fill="none" xmlns="http://www.w3.org/2000/svg">
<g opacity="0.25">
<path opacity="0.25" d="M26 45.4226C39.8071 45.4226 51 35.4987 51 23.2569C51 11.0151 39.8071 1.09119 26 1.09119C12.1929 1.09119 1 11.0151 1 23.2569C1 35.4987 12.1929 45.4226 26 45.4226Z" stroke="#33A0FF" stroke-width="2"/>
</g>
<path fill-rule="evenodd" clip-rule="evenodd" d="M28.936 17.8641C29.5799 17.8647 30.2098 18.0334 30.7502 18.35C31.2907 18.6666 31.7185 19.1177 31.9825 19.649C32.2465 20.1802 32.3354 20.7692 32.2385 21.345C32.1415 21.9209 31.8629 22.4591 31.436 22.8952C30.823 23.5204 25.5961 27.9472 25.5961 27.9472C25.5961 27.9472 20.358 23.5204 19.745 22.8853C19.2039 22.3357 18.9061 21.6246 18.909 20.8886C18.9242 20.0954 19.2831 19.3393 19.9085 18.7832C20.5339 18.2271 21.3757 17.9155 22.2526 17.9155C23.1294 17.9155 23.9712 18.2271 24.5965 18.7832C25.2219 19.3393 25.5809 20.0954 25.5961 20.8886C25.5961 20.4913 25.6825 20.0978 25.8506 19.7308C26.0186 19.3637 26.265 19.0302 26.5755 18.7493C26.886 18.4684 27.2546 18.2455 27.6603 18.0935C28.066 17.9414 28.5009 17.8632 28.9401 17.8632L28.936 17.8641ZM28.9401 15.8466C27.7338 15.8447 26.5597 16.1988 25.5961 16.8553C24.4921 16.114 23.1242 15.768 21.7554 15.8839C20.3865 15.9998 19.1133 16.5693 18.1805 17.4831C17.2477 18.3968 16.7212 19.5902 16.7021 20.8339C16.683 22.0776 17.1727 23.2838 18.077 24.2207C18.703 24.8703 22.826 28.3625 24.077 29.4174C24.4899 29.7668 25.0342 29.9611 25.5995 29.9611C26.1649 29.9611 26.7091 29.7668 27.122 29.4174C28.366 28.3634 32.472 24.8802 33.106 24.2315C33.8173 23.5046 34.2816 22.6072 34.4429 21.6474C34.6042 20.6875 34.4557 19.7059 34.0154 18.8205C33.575 17.9351 32.8614 17.1835 31.9604 16.6561C31.0593 16.1288 30.0092 15.8479 28.936 15.8474L28.9401 15.8466Z" fill="#33A0FF"/>
</svg>
