<svg width="39" height="26" viewBox="0 0 39 26" fill="none" xmlns="http://www.w3.org/2000/svg">
<path d="M2.45985 0.849365H37.1948C37.6436 0.86142 38.0694 1.05038 38.3793 1.37524C38.6892 1.70011 38.8579 2.13439 38.8488 2.58325V24.2561C38.8579 24.705 38.6892 25.1392 38.3793 25.4641C38.0694 25.789 37.6436 25.9779 37.1948 25.99H2.45985C2.01105 25.9779 1.58515 25.789 1.27528 25.4641C0.965398 25.1392 0.796652 24.705 0.805793 24.2561V2.58423C0.796385 2.13519 0.965126 1.70081 1.27503 1.37573C1.58494 1.05065 2.01088 0.86142 2.45985 0.849365Z" fill="#F1F1F1"/>
<path d="M1.21778 25.3992C0.952164 25.0784 0.807499 24.6745 0.808845 24.2581V2.58423C0.799437 2.13519 0.968056 1.70081 1.27796 1.37573C1.58787 1.05065 2.01381 0.86142 2.46278 0.849365H37.1968C37.6185 0.850311 38.0228 1.01683 38.3228 1.31323L1.22279 25.3992H1.21778Z" fill="white" fill-opacity="0.73"/>
<path d="M15.4539 18.8143L16.7538 16.4642L16.0298 10.8201H17.8008L18.0868 14.1605L19.8198 10.8201H21.6478L17.4388 18.8143H15.4539ZM9.90076 14.5985C10.1738 13.2245 11.5008 12.7884 13.4628 12.7884C13.5798 12.1774 13.1908 12.0242 12.5288 12.0472C11.9451 12.0755 11.3713 12.2086 10.8348 12.4403L10.9897 11.0672C11.6339 10.8671 12.3011 10.7497 12.9749 10.7181C14.2009 10.6961 15.5638 11.0875 15.2528 12.6805L14.4938 16.4305H12.7228L12.8387 15.8621C12.6332 16.0743 12.3875 16.2436 12.1158 16.3597C11.8442 16.4758 11.5522 16.5365 11.2568 16.5384C10.4178 16.5344 9.67086 15.9881 9.90186 14.5941L9.90076 14.5985ZM11.7118 14.5111C11.656 14.59 11.6244 14.6835 11.6206 14.7801C11.6168 14.8767 11.6411 14.9724 11.6906 15.0555C11.74 15.1385 11.8123 15.2056 11.8989 15.2484C11.9856 15.2911 12.0829 15.3075 12.1788 15.2962C12.3979 15.306 12.6131 15.2363 12.7849 15.0999C12.9567 14.9636 13.0735 14.7701 13.1138 14.5545C13.1369 14.386 13.1703 14.219 13.2137 14.0545H12.7657C12.5662 14.036 12.3653 14.0677 12.1812 14.1468C11.997 14.2259 11.8357 14.3496 11.7118 14.5072V14.5111ZM3.80078 16.4305L5.26477 9.25813H8.57178C8.86658 9.25552 9.15773 9.32374 9.42078 9.45686C9.68382 9.58998 9.91113 9.78418 10.0836 10.0233C10.2561 10.2624 10.3687 10.5393 10.4121 10.8309C10.4555 11.1225 10.4282 11.4201 10.3328 11.699C10.2376 12.3549 9.90883 12.9543 9.40686 13.387C8.90489 13.8197 8.26355 14.057 7.60083 14.0545H6.21777L5.7428 16.4305H3.80078ZM6.49377 12.6805H7.40381C7.67001 12.6593 7.92205 12.5518 8.12207 12.3748C8.32209 12.1979 8.45926 11.9607 8.51282 11.699C8.55479 11.5914 8.57019 11.4755 8.55774 11.3607C8.54529 11.2458 8.50535 11.1355 8.44128 11.0394C8.37722 10.9432 8.29091 10.8641 8.1897 10.8084C8.08848 10.7527 7.97525 10.7218 7.85974 10.7191H6.90979L6.49377 12.6805Z" fill="#3284AE"/>
<path d="M27.1178 14.594C27.3938 13.22 28.7348 12.7854 30.7238 12.7854C30.8618 12.1734 30.4679 12.0222 29.7979 12.0442C29.2017 12.0748 28.6152 12.2075 28.0638 12.4363L28.2218 11.0632C28.8816 10.8656 29.5629 10.7486 30.2509 10.7151C31.4919 10.6931 32.8508 11.084 32.5358 12.676L31.7678 16.425H29.9948L30.1128 15.8591C29.6832 16.2883 29.1019 16.5314 28.4948 16.5354C27.6368 16.5344 26.8808 15.989 27.1178 14.594ZM28.9508 14.5071C28.8969 14.5887 28.8676 14.6842 28.8665 14.782C28.8653 14.8798 28.8925 14.9755 28.9445 15.0583C28.9965 15.1412 29.0711 15.2073 29.1597 15.2488C29.2482 15.2902 29.347 15.3054 29.4438 15.2922C29.6616 15.302 29.8755 15.232 30.0458 15.0959C30.2161 14.9598 30.3312 14.7666 30.3698 14.552C30.4088 14.377 30.4288 14.224 30.4698 14.052H30.0367C29.8318 14.0313 29.6249 14.0621 29.4348 14.1414C29.2447 14.2206 29.0773 14.3459 28.9478 14.5061L28.9508 14.5071ZM32.5868 16.425L34.0529 9.2312H35.8728L34.3878 16.425H32.5868ZM21.0178 16.425L22.4799 9.25415H25.7798C26.0737 9.25336 26.3637 9.32264 26.6255 9.4563C26.8873 9.58996 27.1135 9.78415 27.2853 10.0227C27.4571 10.2613 27.5694 10.5372 27.6132 10.8279C27.6569 11.1186 27.6307 11.4156 27.5367 11.6941C27.4415 12.3523 27.1108 12.9535 26.6061 13.3865C26.1013 13.8195 25.4568 14.055 24.7917 14.0491H23.4288L22.9348 16.4241L21.0178 16.425ZM23.7048 12.676H24.5928C24.8611 12.6554 25.1157 12.549 25.3187 12.3723C25.5217 12.1956 25.6624 11.958 25.7198 11.6951C25.7596 11.586 25.7728 11.469 25.7583 11.3538C25.7438 11.2385 25.702 11.1283 25.6364 11.0325C25.5707 10.9366 25.4832 10.8582 25.381 10.803C25.2788 10.7478 25.165 10.7174 25.0488 10.7151H24.1008L23.7048 12.676Z" fill="#3CA9C7"/>
</svg>
