<svg width="21" height="21" viewBox="0 0 21 21" fill="none" xmlns="http://www.w3.org/2000/svg">
<path fill-rule="evenodd" clip-rule="evenodd" d="M20.8103 17.0716C20.3268 15.7833 19.5856 14.6074 18.632 13.6158C17.6784 12.6243 16.5325 11.8381 15.2646 11.3054C15.9541 10.7387 16.5109 10.0274 16.8957 9.22182C17.2805 8.41619 17.484 7.53584 17.4916 6.64293C17.4667 5.07808 16.8632 3.57801 15.7977 2.43247C14.7322 1.28692 13.2802 0.577199 11.7224 0.440433C11.2122 0.377155 10.6963 0.377155 10.1861 0.440433C8.62918 0.578368 7.17846 1.28861 6.11397 2.43403C5.04949 3.57945 4.44667 5.07887 4.42188 6.64293C4.4293 7.53588 4.6326 8.4163 5.01742 9.22197C5.40224 10.0276 5.9592 10.7389 6.64891 11.3054C5.38071 11.8379 4.23456 12.624 3.28073 13.6155C2.32691 14.6071 1.58551 15.7832 1.102 17.0716C0.965616 17.4484 0.925128 17.8532 0.984223 18.2495C1.04332 18.6458 1.20013 19.0212 1.44048 19.3417C1.6899 19.6708 2.01259 19.9373 2.38293 20.1197C2.75326 20.3022 3.16103 20.3958 3.57382 20.3929H18.3484C18.7608 20.3957 19.1682 20.3021 19.5381 20.1196C19.908 19.9371 20.2303 19.6707 20.4793 19.3417C20.719 19.0208 20.8748 18.6451 20.9326 18.2487C20.9904 17.8523 20.9484 17.4477 20.8103 17.0716ZM7.0361 6.64293C7.05336 5.69514 7.4235 4.78791 8.07406 4.09891C8.72463 3.40992 9.60875 2.98877 10.5533 2.91792C10.8225 2.88458 11.0948 2.88458 11.3639 2.91792C12.0743 3.02692 12.7386 3.33751 13.278 3.81281C13.8174 4.28811 14.2093 4.90823 14.4073 5.59965C14.6053 6.29107 14.601 7.0248 14.395 7.71387C14.189 8.40294 13.7899 9.01845 13.245 9.48743C12.7001 9.95642 12.0323 10.2592 11.3207 10.3599C10.6091 10.4606 9.88351 10.355 9.23004 10.0557C8.57657 9.75629 8.02259 9.27569 7.63373 8.67082C7.24488 8.06595 7.03747 7.36218 7.0361 6.64293ZM3.5713 17.8929C4.16324 16.4168 5.18317 15.1517 6.49975 14.2608C7.81634 13.3698 9.3693 12.8936 10.9586 12.8936C12.548 12.8936 14.1009 13.3698 15.4175 14.2608C16.7341 15.1517 17.754 16.4168 18.3459 17.8929H3.57382H3.5713Z" fill="#22262A"/>
</svg>
