<svg width="125" height="14" viewBox="0 0 125 14" fill="none" xmlns="http://www.w3.org/2000/svg">
<path d="M69.6423 5.5825L65.3908 8.76891L66.6416 13.9476L62.5106 10.819L58.1136 13.7811L59.8124 8.66035L55.8463 5.31292L61.0268 5.27669L62.9734 0.245605L64.4766 5.34462L69.6423 5.5825Z" fill="#FFC600"/>
<path d="M42.1911 5.5825L37.9397 8.76891L39.1904 13.9476L35.0595 10.819L30.6625 13.7811L32.3612 8.66035L28.3951 5.31292L33.5756 5.27669L35.5223 0.245605L37.0255 5.34462L42.1911 5.5825Z" fill="#FFC600"/>
<path d="M14.7423 5.5825L10.4908 8.76891L11.7416 13.9476L7.61061 10.819L3.21358 13.7811L4.91237 8.66035L0.946289 5.31292L6.12675 5.27669L8.07341 0.245605L9.5766 5.34462L14.7423 5.5825Z" fill="#FFC600"/>
<path d="M97.0916 5.5825L92.8402 8.76891L94.091 13.9476L89.96 10.819L85.563 13.7811L87.2618 8.66035L83.2957 5.31292L88.4762 5.27669L90.4228 0.245605L91.926 5.34462L97.0916 5.5825Z" fill="#FFC600"/>
<path d="M124.543 5.5825L120.291 8.76891L121.542 13.9476L117.411 10.819L113.014 13.7811L114.713 8.66035L110.747 5.31292L115.927 5.27669L117.874 0.245605L119.377 5.34462L124.543 5.5825Z" fill="#C1C8CE"/>
</svg>
