<svg width="87" height="12" viewBox="0 0 87 12" fill="none" xmlns="http://www.w3.org/2000/svg">
<path d="M50.3711 4.79861L46.385 7.2983L47.5551 11.3606L43.683 8.90697L39.561 11.2303L41.153 7.21326L37.436 4.58965L42.2921 4.56061L44.117 0.614258L45.5261 4.61318L50.3711 4.79861Z" fill="#FFC600"/>
<path d="M32.101 4.79861L28.116 7.2983L29.286 11.3606L25.414 8.90697L21.292 11.2303L22.884 7.21326L19.166 4.58965L24.023 4.56061L25.848 0.614258L27.257 4.61318L32.101 4.79861Z" fill="#FFC600"/>
<path d="M13.831 4.79861L9.84601 7.2983L11.016 11.3606L7.14301 8.90697L3.02103 11.2303L4.61301 7.21326L0.89502 4.58965L5.75101 4.56061L7.57602 0.614258L8.98502 4.61318L13.831 4.79861Z" fill="#FFC600"/>
<path d="M68.642 4.79861L64.657 7.2983L65.827 11.3606L61.955 8.90697L57.833 11.2303L59.425 7.21326L55.707 4.58965L60.564 4.56061L62.389 0.614258L63.798 4.61318L68.642 4.79861Z" fill="#FFC600"/>
<path d="M86.913 4.79861L82.9269 7.2983L84.097 11.3606L80.2239 8.90697L76.102 11.2303L77.694 7.21326L73.976 4.58965L78.832 4.56061L80.657 0.614258L82.066 4.61318L86.913 4.79861Z" fill="#C1C8CE"/>
</svg>
