<svg width="22" height="22" viewBox="0 0 22 22" fill="none" xmlns="http://www.w3.org/2000/svg">
<path fill-rule="evenodd" clip-rule="evenodd" d="M20.7067 19.6109L14.3987 13.2739C15.5304 11.6677 16.0175 9.69508 15.7635 7.74676C15.5095 5.79843 14.533 4.0166 13.0273 2.75426C11.5217 1.49193 9.59677 0.841199 7.63401 0.931021C5.67125 1.02084 3.81385 1.84461 2.42978 3.23919C1.04572 4.63376 0.23596 6.49736 0.160986 8.46074C0.0860119 10.4241 0.751283 12.3441 2.02497 13.8401C3.29866 15.3362 5.08784 16.2993 7.03803 16.5385C8.98822 16.7777 10.9571 16.2757 12.5547 15.1319L18.8627 21.4699C18.984 21.5939 19.1288 21.6925 19.2886 21.76C19.4485 21.8275 19.6201 21.8626 19.7936 21.8631C19.9671 21.8637 20.1389 21.8298 20.2992 21.7634C20.4595 21.697 20.6049 21.5994 20.7271 21.4762C20.8494 21.3531 20.9459 21.2069 21.0111 21.0461C21.0763 20.8854 21.1089 20.7133 21.107 20.5398C21.1051 20.3663 21.0687 20.1949 21 20.0356C20.9313 19.8763 20.8316 19.7323 20.7067 19.6119V19.6109ZM8.01768 13.9689C6.97672 13.9746 5.95749 13.6712 5.08918 13.097C4.22086 12.5229 3.54254 11.7039 3.1402 10.7438C2.73786 9.78376 2.62961 8.72581 2.82917 7.70415C3.02872 6.68249 3.52711 5.7431 4.26114 5.005C4.99518 4.26689 5.93183 3.7633 6.95237 3.5581C7.97291 3.35289 9.03141 3.45532 9.99369 3.85235C10.956 4.24937 11.7787 4.92313 12.3576 5.78826C12.9366 6.65339 13.2457 7.67088 13.2457 8.71184C13.2457 10.1011 12.6958 11.4339 11.7162 12.4189C10.7366 13.404 9.40689 13.9612 8.01768 13.9689Z" fill="#22262A"/>
</svg>
