<svg width="19" height="19" viewBox="0 0 19 19" fill="none" xmlns="http://www.w3.org/2000/svg">
<path d="M9.58771 18.2341C8.05663 18.2339 6.55103 17.8423 5.21393 17.0964C3.87683 16.3505 2.75265 15.2751 1.94818 13.9724C1.14372 12.6697 0.685689 11.1831 0.617615 9.65352C0.549541 8.12395 0.873706 6.60213 1.55927 5.23311C2.24482 3.86409 3.26905 2.69347 4.53461 1.83174C5.80016 0.970008 7.26497 0.445951 8.78998 0.309767C10.315 0.173583 11.8495 0.429563 13.2477 1.05342C14.646 1.67728 15.8615 2.64833 16.7787 3.87422H15.5788V4.47432H17.1917C17.3127 4.66532 17.4268 4.86318 17.5328 5.06318H14.9787V5.66328H17.8217C17.9097 5.86328 17.9888 6.06338 18.0588 6.26338H14.3787V6.86299H18.2468C18.7329 8.63697 18.6659 10.5173 18.0547 12.2521H14.3787V12.8522H17.8177C17.7277 13.0592 17.6308 13.2521 17.5328 13.4431H14.9787V14.0432H17.1848C17.0518 14.2532 16.9128 14.4543 16.7718 14.6433H15.5788V15.2434H16.2787C15.436 16.1837 14.4046 16.936 13.2518 17.4514C12.0989 17.9667 10.8505 18.2332 9.58771 18.2341Z" fill="#E63737"/>
</svg>
