<svg width="40" height="26" viewBox="0 0 40 26" fill="none" xmlns="http://www.w3.org/2000/svg">
<path d="M2.5128 0.688232H37.5128C37.7361 0.692523 37.9564 0.740837 38.1611 0.830322C38.3658 0.919807 38.5509 1.04868 38.7057 1.20972C38.8605 1.37076 38.982 1.56075 39.0633 1.7688C39.1447 1.97685 39.1843 2.19878 39.1798 2.42212V24.0964C39.1843 24.3198 39.1447 24.5417 39.0633 24.7498C38.982 24.9578 38.8605 25.1478 38.7057 25.3088C38.5509 25.4699 38.3658 25.5987 38.1611 25.6882C37.9564 25.7777 37.7361 25.826 37.5128 25.8303H2.5128C2.28945 25.826 2.06916 25.7777 1.86448 25.6882C1.6598 25.5987 1.47474 25.4699 1.31993 25.3088C1.16511 25.1478 1.04349 24.9578 0.962139 24.7498C0.880785 24.5417 0.841297 24.3198 0.845806 24.0964V2.42212C0.841297 2.19878 0.880785 1.97685 0.962139 1.7688C1.04349 1.56075 1.16511 1.37076 1.31993 1.20972C1.47474 1.04868 1.6598 0.919807 1.86448 0.830322C2.06916 0.740837 2.28945 0.692523 2.5128 0.688232Z" fill="url(#paint0_linear_0_25)"/>
<defs>
<linearGradient id="paint0_linear_0_25" x1="20.0128" y1="25.8303" x2="20.0128" y2="0.688232" gradientUnits="userSpaceOnUse">
<stop stop-color="#E59703"/>
<stop offset="0.231" stop-color="#E59703"/>
<stop offset="0.234" stop-color="white"/>
<stop offset="0.761" stop-color="white"/>
<stop offset="0.766" stop-color="#5457BB"/>
<stop offset="1" stop-color="#5457BB"/>
</linearGradient>
</defs>
</svg>
