<svg width="19" height="19" viewBox="0 0 19 19" fill="none" xmlns="http://www.w3.org/2000/svg">
<path d="M0.366791 9.25499C0.367186 7.47924 0.89413 5.7435 1.88095 4.2672C2.86777 2.7909 4.27018 1.64037 5.91086 0.961048C7.55153 0.281726 9.35676 0.104192 11.0984 0.450794C12.84 0.797395 14.4397 1.6526 15.6953 2.90831C16.9509 4.16403 17.8059 5.76385 18.1523 7.50548C18.4987 9.24712 18.3208 11.0524 17.6413 12.693C16.9618 14.3336 15.8112 15.7356 14.3348 16.7223C12.8584 17.7089 11.1225 18.2358 9.34677 18.236C8.16742 18.236 6.99957 18.0037 5.91 17.5524C4.82043 17.101 3.83043 16.4396 2.99655 15.6056C2.16267 14.7716 1.50125 13.7816 1.05002 12.692C0.59879 11.6024 0.366659 10.4343 0.366791 9.25499Z" fill="#FFAF38"/>
</svg>
