<svg width="27" height="9" viewBox="0 0 27 9" fill="none" xmlns="http://www.w3.org/2000/svg">
<path d="M24.8177 8.91431L24.5658 7.61938H21.8318L21.3828 8.91431H19.1407L22.3478 0.849365C22.4224 0.649374 22.559 0.478347 22.7377 0.361572C22.9163 0.244798 23.1277 0.188479 23.3408 0.200439H25.0698L26.7917 8.91528L24.8177 8.91431ZM23.5818 2.57007L22.4518 5.8313H24.2178L23.5818 2.57007ZM16.2948 2.68433C16.2948 3.63633 19.2948 3.84005 19.2948 6.02905C19.2948 8.13705 17.0798 8.91235 15.6128 8.91235C14.779 8.92614 13.9517 8.76387 13.1848 8.43628L13.5048 6.54614C14.3848 7.26614 17.0538 7.47137 17.0538 6.32837C17.0538 5.18537 14.0789 5.15818 14.0789 2.98218C14.0789 0.670178 16.6128 0.194092 17.6788 0.194092C18.3391 0.211019 18.9922 0.33515 19.6128 0.561279L19.3058 2.37036C18.3878 1.85836 16.2928 1.73623 16.2928 2.68823L16.2948 2.68433ZM9.71082 8.91431L11.0548 0.198975H13.2058L11.8618 8.91431H9.71082ZM4.55383 8.91431L2.68774 1.35229C3.0174 1.55819 3.33191 1.78748 3.62878 2.03833C4.5258 2.80592 5.20832 3.79281 5.60974 4.90308L5.85278 6.19409L7.90381 0.200439H10.2188L6.79675 8.91528L4.55383 8.91431ZM0.759766 0.438232L0.65979 0.408447L0.759766 0.438232ZM0.539795 0.373291L0.491821 0.360107L0.539795 0.373291ZM1.06885 0.543213L0.940796 0.498291L1.06885 0.543213ZM2.55981 1.26831C2.49315 1.22698 2.42641 1.18717 2.35974 1.14917C2.42374 1.19317 2.48974 1.23119 2.55774 1.27319L2.55981 1.26831ZM2.04578 0.978271C1.98778 0.948272 1.92785 0.916428 1.87085 0.888428C1.92585 0.921428 1.98482 0.953154 2.04382 0.983154L2.04578 0.978271ZM1.51074 0.721436L1.39282 0.670166L1.51074 0.721436Z" fill="#494CA3"/>
</svg>
