<svg width="16" height="13" viewBox="0 0 16 13" fill="none" xmlns="http://www.w3.org/2000/svg">
<path d="M15.1247 2.16029C14.5744 2.40041 13.9925 2.56005 13.3967 2.63429C14.0248 2.26182 14.4945 1.67189 14.7167 0.976287C14.1293 1.32465 13.4867 1.57018 12.8167 1.70229C12.4055 1.26225 11.8714 0.956144 11.2839 0.82381C10.6964 0.691476 10.0826 0.739036 9.52249 0.960304C8.96236 1.18157 8.4818 1.5663 8.14332 2.06443C7.80485 2.56257 7.62414 3.15104 7.6247 3.75329C7.62251 3.98318 7.64598 4.2126 7.6947 4.43729C6.50132 4.3787 5.33375 4.06891 4.2683 3.52817C3.20285 2.98743 2.26351 2.22792 1.5117 1.29929C1.1256 1.95919 1.00601 2.7416 1.17737 3.4867C1.34873 4.2318 1.79811 4.88336 2.4337 5.30829C1.95898 5.29569 1.49426 5.16913 1.0787 4.93929V4.97229C1.07934 5.66456 1.31827 6.33551 1.75533 6.87236C2.1924 7.40922 2.80095 7.77926 3.4787 7.92029C3.22196 7.98838 2.95731 8.02201 2.6917 8.02029C2.50108 8.02375 2.31065 8.00665 2.1237 7.96929C2.3173 8.56425 2.69045 9.08463 3.19184 9.45888C3.69323 9.83313 4.29825 10.0429 4.9237 10.0593C3.8631 10.888 2.55566 11.3379 1.2097 11.3373C0.969736 11.339 0.729911 11.3253 0.491699 11.2963C1.86287 12.1798 3.46055 12.6473 5.0917 12.6423C6.21494 12.6501 7.32855 12.4347 8.36784 12.0085C9.40713 11.5824 10.3514 10.9539 11.1457 10.1598C11.9401 9.36557 12.5688 8.42147 12.9952 7.38228C13.4216 6.34309 13.6373 5.22954 13.6297 4.10629C13.6297 3.97329 13.6297 3.84529 13.6187 3.71829C14.2113 3.29493 14.7217 2.76694 15.1247 2.16029Z" fill="#03A9F4"/>
</svg>
