<svg width="40" height="27" viewBox="0 0 40 27" fill="none" xmlns="http://www.w3.org/2000/svg">
<path d="M2.40977 0.885986H37.3918C37.6151 0.890407 37.8352 0.939022 38.0398 1.02856C38.2443 1.11811 38.4293 1.24693 38.584 1.40796C38.7387 1.56898 38.8602 1.75906 38.9415 1.96704C39.0228 2.17502 39.0622 2.3971 39.0577 2.62036V24.2961C39.0666 24.7469 38.896 25.1826 38.5836 25.5076C38.2712 25.8326 37.8425 26.0201 37.3918 26.0291H2.40977C1.95905 26.0201 1.5303 25.8326 1.21788 25.5076C0.90545 25.1826 0.734915 24.7469 0.743755 24.2961V2.62036C0.739245 2.3971 0.778796 2.17502 0.860088 1.96704C0.941379 1.75906 1.0628 1.56898 1.21751 1.40796C1.37222 1.24693 1.55713 1.11811 1.7617 1.02856C1.96626 0.939022 2.18651 0.890407 2.40977 0.885986Z" fill="#353A40"/>
<path d="M23.4327 17.4503C23.1684 17.3159 22.9509 17.1042 22.8088 16.8439C22.6384 16.5252 22.5556 16.1674 22.5688 15.8063C22.5542 15.5601 22.5884 15.3135 22.6698 15.0807C22.7512 14.8479 22.878 14.6337 23.0428 14.4503C23.2181 14.2834 23.4257 14.1542 23.653 14.0709C23.8802 13.9877 24.1222 13.9517 24.3638 13.966C24.6072 13.9503 24.8513 13.9845 25.0811 14.0665C25.3108 14.1486 25.5214 14.2767 25.6998 14.443C25.8631 14.623 25.9887 14.8338 26.0692 15.0631C26.1498 15.2924 26.1837 15.5354 26.1688 15.778C26.1837 16.1296 26.1151 16.4798 25.9688 16.7999C25.8366 17.0605 25.6308 17.2765 25.3768 17.421C25.0794 17.5783 24.746 17.655 24.4098 17.6432C24.0736 17.6553 23.7391 17.5894 23.4327 17.4503ZM23.8387 15.0333C23.7098 15.2717 23.6423 15.5382 23.6423 15.8092C23.6423 16.0802 23.7098 16.3468 23.8387 16.5851C23.9067 16.6589 23.9894 16.7176 24.0813 16.7579C24.1732 16.7982 24.2724 16.8195 24.3728 16.8195C24.4732 16.8195 24.5724 16.7982 24.6643 16.7579C24.7562 16.7176 24.8387 16.6589 24.9067 16.5851C25.0583 16.3378 25.1251 16.0476 25.0968 15.7589C25.1183 15.4984 25.0476 15.2387 24.8969 15.025C24.8308 14.9485 24.7481 14.8883 24.6553 14.8483C24.5624 14.8083 24.4618 14.7896 24.3608 14.7941C24.2613 14.7913 24.1625 14.8112 24.072 14.8527C23.9815 14.8941 23.9016 14.9562 23.8387 15.0333ZM13.9268 17.6071C13.7525 17.5899 13.5829 17.5404 13.4268 17.4611C13.2852 17.3838 13.1602 17.2794 13.0588 17.1539C12.955 17.0349 12.877 16.896 12.8298 16.7452C12.7685 16.5509 12.7348 16.3489 12.7299 16.1451V14.027H13.8008V16.195C13.796 16.2774 13.8075 16.3602 13.8348 16.4381C13.8621 16.516 13.9047 16.5876 13.9598 16.6491C14.0812 16.7533 14.2358 16.8107 14.3958 16.8107C14.5557 16.8107 14.7104 16.7533 14.8318 16.6491C14.8869 16.587 14.9293 16.5146 14.9564 16.4362C14.9835 16.3577 14.9948 16.2749 14.9897 16.192V14.0241H16.0608V16.1422C16.0613 16.3464 16.0276 16.5493 15.9608 16.7423C15.8992 16.9259 15.7965 17.0929 15.6608 17.2311C15.541 17.3617 15.3939 17.4639 15.2299 17.5309C14.9886 17.6149 14.7341 17.655 14.4788 17.6491C14.2944 17.6454 14.1105 17.6311 13.9279 17.6061L13.9268 17.6071ZM29.0658 17.5831L27.7657 15.631V17.5831H26.7557V14.028H27.7557L29.0648 15.9943V14.028H30.0768V17.5831H29.0658ZM19.0878 17.5831L17.7878 15.631V17.5831H16.7778V14.028H17.7778L19.0858 15.9943V14.028H20.0978V17.5831H19.0878ZM20.8578 17.5739V14.025H21.9377V17.5739H20.8578ZM12.6528 12.5929C12.4213 12.353 12.2838 12.0381 12.2657 11.7052L13.2878 11.6403C13.2985 11.7789 13.3446 11.9122 13.4218 12.028C13.4775 12.0996 13.5497 12.1567 13.6322 12.1945C13.7147 12.2322 13.8051 12.2499 13.8958 12.2452C14.0238 12.2538 14.1505 12.2139 14.2509 12.1339C14.2884 12.1042 14.3188 12.0666 14.34 12.0236C14.3611 11.9806 14.3723 11.9333 14.3729 11.8854C14.3735 11.8375 14.3633 11.7902 14.3433 11.7467C14.3232 11.7032 14.2937 11.6646 14.2568 11.6339C14.0906 11.5262 13.9029 11.4558 13.7068 11.4279C13.3413 11.3667 12.996 11.2189 12.6998 10.9962C12.6022 10.9112 12.5245 10.8053 12.4727 10.6867C12.4208 10.568 12.3959 10.4396 12.3998 10.3102C12.4003 10.1265 12.4541 9.94677 12.5548 9.7931C12.6688 9.62168 12.8314 9.48847 13.0219 9.41029C13.2943 9.30593 13.5853 9.25846 13.8768 9.27113C14.2337 9.24732 14.5891 9.33607 14.8928 9.52503C15.0154 9.62197 15.1158 9.74414 15.1875 9.88294C15.2592 10.0217 15.3006 10.1742 15.3088 10.3302L14.2968 10.3912C14.2835 10.2584 14.2233 10.1345 14.1268 10.0421C14.0247 9.96419 13.898 9.92562 13.7698 9.93324C13.6691 9.9259 13.5692 9.95467 13.4878 10.0143C13.4578 10.0382 13.4337 10.0685 13.4172 10.1032C13.4008 10.1378 13.3925 10.1756 13.3928 10.214C13.3936 10.2439 13.4011 10.2733 13.4148 10.2999C13.4285 10.3266 13.4479 10.3502 13.4718 10.3683C13.581 10.4378 13.7043 10.4821 13.8328 10.4982C14.1803 10.5625 14.5191 10.6679 14.8418 10.8121C15.0238 10.8994 15.1774 11.0363 15.2848 11.2072C15.3776 11.3664 15.4254 11.5478 15.4229 11.7321C15.4241 11.9559 15.3597 12.1752 15.2378 12.3629C15.1124 12.5567 14.9326 12.7091 14.7208 12.8009C14.4555 12.908 14.1707 12.9591 13.8848 12.9503C13.4431 12.9965 13.001 12.8676 12.6528 12.5919V12.5929ZM29.0668 12.8829L27.7668 10.9303V12.8829H26.7568V9.32826H27.7568L29.0658 11.2951V9.32826H30.0778V12.8829H29.0668ZM25.1918 12.8829L24.6178 11.796C24.5716 11.693 24.5054 11.6002 24.4229 11.5231C24.3459 11.4681 24.2534 11.439 24.1588 11.4401H24.0638V12.8829H22.9847V9.32826H24.7738C25.0304 9.31818 25.2871 9.34744 25.5348 9.41517C25.7087 9.472 25.8585 9.58555 25.9598 9.73792C26.071 9.909 26.1272 10.1102 26.1208 10.3141C26.1253 10.4923 26.0829 10.6687 25.9978 10.8253C25.9154 10.9677 25.7985 11.0867 25.6578 11.172C25.5404 11.2388 25.4131 11.2868 25.2808 11.3141C25.38 11.3434 25.4744 11.3871 25.5608 11.444C25.6251 11.4996 25.6825 11.5627 25.7318 11.632C25.7889 11.7004 25.8395 11.7743 25.8828 11.8522L26.4028 12.8829H25.1918ZM24.0648 10.7672H24.5178C24.6138 10.7603 24.7088 10.7439 24.8018 10.7189C24.8714 10.7046 24.9335 10.6652 24.9758 10.608C25.0209 10.5485 25.0449 10.4757 25.0438 10.401C25.0469 10.3517 25.0389 10.3023 25.0204 10.2565C25.0019 10.2106 24.9733 10.1692 24.9368 10.1359C24.8171 10.0623 24.6765 10.0305 24.5367 10.0451H24.0648V10.7672ZM19.4648 12.8829V9.32826H22.3428V10.087H20.5428V10.652H22.2148V11.3781H20.5428V12.0783H22.3978V12.8829H19.4648ZM16.8127 12.8829V10.2062H15.7178V9.32826H18.9828V10.2062H17.8828V12.8829H16.8127ZM8.94775 12.8829V9.32826H11.8258V10.087H10.0258V10.652H11.6968V11.3781H10.0178V12.0783H11.8708V12.8829H8.94775ZM6.78076 12.8829L6.17175 10.6442L5.56482 12.8829H4.51184L3.73877 9.32826H4.75879L5.12585 11.318L5.66382 9.32826H6.67981L7.21875 11.316L7.58582 9.32826H8.60083L7.83484 12.8829H6.78076Z" fill="#ECD345"/>
<path d="M34.8678 17.6453V9.26538H36.0677V17.6453H34.8678ZM31.8778 17.6453V9.26538H33.0778V17.6453H31.8778Z" fill="#ECD345"/>
</svg>
